<?xml version="1.0" standalone="no"?>
<!DOCTYPE svg PUBLIC "-//W3C//DTD SVG 20010904//EN"
 "http://www.w3.org/TR/2001/REC-SVG-20010904/DTD/svg10.dtd">
<svg version="1.0" xmlns="http://www.w3.org/2000/svg"
 width="500.000000pt" height="500.000000pt" viewBox="0 0 500.000000 500.000000"
 preserveAspectRatio="xMidYMid meet">
<metadata>
Created by potrace 1.11, written by Peter Selinger 2001-2013
</metadata>
<g transform="translate(0.000000,500.000000) scale(0.100000,-0.100000)"
fill="#000000" stroke="none">
<path d="M4612 4961 c-7 -21 -12 -48 -12 -60 0 -11 -5 -21 -11 -21 -5 0 -7 -4
-4 -10 3 -5 2 -10 -2 -10 -5 0 -9 -10 -10 -22 -1 -11 -6 -24 -10 -27 -4 -3 -8
-10 -8 -16 -2 -26 -71 -161 -97 -189 -10 -11 -18 -23 -18 -26 0 -4 -11 -20
-25 -36 -14 -16 -25 -33 -25 -38 0 -4 -18 -26 -40 -47 -22 -22 -40 -42 -40
-46 0 -5 -16 -26 -35 -47 -19 -21 -36 -42 -37 -45 -5 -11 -110 -91 -119 -91
-5 0 -9 -6 -9 -14 0 -8 -10 -16 -22 -20 -13 -3 -39 -19 -58 -36 -19 -16 -43
-30 -52 -30 -9 0 -23 -7 -32 -15 -8 -8 -24 -15 -35 -15 -12 0 -21 -5 -21 -12
0 -6 -3 -9 -6 -6 -5 5 -76 -20 -159 -57 -35 -16 -111 -33 -162 -38 -13 -1 -23
-7 -23 -13 0 -6 -38 -19 -85 -29 -47 -10 -88 -22 -91 -26 -3 -5 -13 -5 -23 1
-11 5 -22 5 -27 0 -11 -11 -49 -18 -134 -27 -36 -3 -67 -10 -70 -14 -3 -5 -25
-10 -48 -11 -23 -2 -42 -6 -42 -10 0 -4 -26 -12 -57 -18 -32 -7 -66 -16 -76
-21 -10 -5 -36 -12 -58 -14 -22 -2 -46 -8 -52 -13 -10 -8 -60 -23 -77 -24 -3
0 -14 -5 -25 -11 -11 -6 -23 -11 -27 -12 -3 0 -10 -3 -14 -7 -4 -5 -20 -8 -35
-8 -15 0 -30 -4 -33 -9 -4 -5 -24 -12 -47 -16 -22 -4 -43 -13 -46 -21 -3 -8
-18 -14 -33 -14 -16 0 -32 -4 -35 -10 -3 -5 -15 -10 -25 -10 -10 0 -20 -5 -22
-11 -2 -5 -10 -11 -19 -12 -9 -2 -28 -10 -42 -20 -15 -9 -32 -17 -39 -17 -8 0
-20 -9 -28 -19 -7 -11 -18 -17 -23 -14 -11 6 -59 -17 -70 -34 -4 -7 -15 -13
-24 -13 -9 0 -41 -17 -72 -37 -31 -21 -59 -38 -62 -38 -3 0 -13 -8 -23 -17
-10 -10 -21 -18 -25 -18 -5 0 -25 -13 -46 -30 -21 -16 -44 -30 -51 -30 -7 0
-24 -10 -37 -22 -42 -41 -77 -68 -87 -68 -6 0 -24 -14 -40 -30 -16 -17 -35
-30 -43 -30 -7 0 -19 -11 -27 -24 -7 -14 -26 -30 -41 -37 -16 -6 -29 -16 -29
-22 0 -5 -10 -19 -23 -31 -12 -11 -33 -36 -45 -53 -13 -18 -30 -33 -38 -33 -8
0 -14 -7 -14 -15 0 -8 -7 -15 -15 -15 -8 0 -15 -7 -15 -16 0 -9 -14 -30 -31
-46 -17 -17 -28 -36 -25 -44 3 -7 -3 -18 -14 -24 -11 -6 -20 -17 -20 -24 0 -7
-9 -23 -20 -36 -11 -13 -20 -29 -20 -36 0 -7 -4 -14 -9 -16 -13 -5 -81 -135
-74 -142 4 -3 1 -6 -5 -6 -7 0 -12 -8 -12 -17 0 -39 -25 -123 -37 -123 -12 0
-18 -34 -13 -69 1 -8 -4 -17 -10 -21 -7 -4 -13 -27 -14 -51 -1 -24 -5 -51 -9
-59 -3 -8 -8 -26 -9 -40 -2 -14 -7 -31 -11 -38 -11 -16 -17 -88 -16 -177 0
-38 0 -97 -1 -129 -1 -33 3 -69 9 -80 5 -12 13 -51 16 -88 4 -38 10 -68 14
-68 4 0 8 -6 9 -12 3 -30 29 -105 44 -128 26 -40 32 -85 13 -104 -9 -9 -13
-20 -10 -26 3 -5 0 -10 -8 -10 -7 0 -27 -17 -43 -37 -16 -21 -48 -57 -72 -81
-23 -24 -49 -57 -57 -73 -9 -16 -23 -29 -32 -29 -9 0 -14 -3 -10 -6 10 -10
-20 -34 -42 -34 -12 0 -21 -4 -21 -9 0 -5 -13 -12 -29 -16 -16 -3 -43 -18 -60
-33 -17 -15 -42 -37 -57 -49 -14 -13 -22 -23 -17 -23 4 0 0 -5 -9 -11 -10 -5
-18 -18 -18 -28 0 -10 -9 -26 -20 -36 -11 -10 -20 -22 -20 -27 0 -5 -9 -21
-19 -36 -12 -17 -21 -53 -25 -95 -7 -68 -33 -117 -62 -117 -7 0 -14 -3 -16 -7
-4 -10 -111 -63 -126 -63 -7 0 -12 -3 -12 -8 0 -7 -61 -44 -77 -45 -10 -1 -28
-16 -55 -44 -12 -13 -28 -23 -35 -23 -7 0 -13 -7 -13 -15 0 -8 -5 -15 -11 -15
-14 0 -77 -67 -84 -91 -3 -10 -20 -33 -37 -51 -29 -31 -31 -38 -36 -130 l-5
-98 831 0 831 0 31 30 c16 16 30 34 30 39 0 6 11 21 24 34 26 26 51 68 48 80
-1 4 5 10 13 13 8 4 15 12 15 19 0 7 7 18 15 25 8 7 12 16 9 21 -3 5 0 9 5 9
6 0 11 4 11 9 0 5 5 22 11 38 6 15 13 41 14 58 2 16 8 31 14 33 6 2 11 19 11
38 0 25 9 44 30 67 16 18 30 38 30 45 0 7 7 15 15 18 8 4 12 10 9 15 -3 5 9
22 25 38 34 33 55 34 161 3 80 -23 560 -23 560 1 0 4 4 6 9 3 5 -4 22 -1 38 5
15 6 40 11 56 11 15 0 27 4 27 9 0 5 10 9 21 9 31 0 163 44 179 60 12 12 82
40 100 40 11 0 20 7 20 15 0 8 5 15 10 15 6 0 12 0 15 0 13 1 128 74 149 95
13 13 36 27 50 31 14 3 26 12 26 20 0 8 6 14 14 14 8 0 16 7 20 15 3 8 10 15
15 15 5 0 26 16 45 35 20 19 41 35 46 35 6 0 10 6 10 13 0 7 9 19 19 27 11 7
18 16 16 20 -2 3 7 14 21 24 13 11 24 25 24 32 0 8 5 14 10 14 6 0 10 7 10 16
0 8 4 12 10 9 5 -3 17 12 26 34 9 23 20 41 25 41 5 0 9 7 9 15 0 7 7 18 15 23
9 4 17 18 20 30 4 23 17 41 52 74 12 11 19 26 17 32 -3 7 4 21 16 31 11 10 20
24 20 32 0 7 5 13 11 13 5 0 8 4 5 9 -3 5 0 11 8 14 7 3 22 28 32 56 10 28 22
51 26 51 4 0 8 8 8 18 0 10 10 29 22 42 12 13 23 32 23 43 1 10 8 22 15 27 7
4 10 14 8 21 -3 8 1 19 9 24 7 6 15 26 18 45 2 19 9 36 15 38 5 2 10 11 10 20
0 10 9 31 20 47 11 17 20 40 20 52 0 30 10 54 21 47 5 -3 9 3 9 13 0 11 5 24
11 30 6 6 13 28 16 49 3 22 9 41 13 44 5 3 12 19 16 35 4 17 9 34 12 40 3 5 6
21 6 35 1 14 6 24 14 22 12 -2 15 12 12 59 0 15 5 33 13 41 8 8 17 32 20 54 3
21 17 84 32 139 43 161 45 168 45 203 0 17 4 32 9 32 9 0 14 25 32 140 11 77
17 106 25 140 7 30 15 66 49 235 14 72 31 146 36 165 5 19 11 55 13 80 2 25 9
81 15 125 7 44 14 98 16 120 2 22 11 71 20 109 9 38 14 74 11 81 -2 6 0 18 4
26 6 8 4 16 -3 21 -9 6 -9 12 1 28 6 11 12 33 12 50 0 16 5 30 11 30 8 0 8 4
0 13 -8 10 -7 17 1 25 9 9 9 12 0 12 -8 0 -9 7 -2 26 6 14 15 69 20 122 14
127 17 149 23 159 3 5 2 15 -3 23 -5 8 -5 19 0 25 7 9 24 257 21 313 -2 35 -9
42 -45 42 -29 0 -34 -4 -44 -39z"/>
</g>
</svg>
